solid cube-ascii
    facet normal  0.000000e+00  0.000000e+00  1.000000e+00
        outer loop
            vertex  -5.000000  -5.000000  5.000000
            vertex  5.000000  -5.000000  5.000000
            vertex  -5.000000  5.000000  5.000000
        endloop
    endfacet
    facet normal  0.000000e+00  0.000000e+00  1.000000e+00
        outer loop
            vertex  5.000000  5.000000  5.000000
            vertex  -5.000000  5.000000  5.000000
            vertex  5.000000  -5.000000  5.000000
        endloop
    endfacet
    facet normal  1.000000e+00  0.000000e+00  0.000000e+00
        outer loop
            vertex  5.000000  -5.000000  5.000000
            vertex  5.000000  -5.000000  -5.000000
            vertex  5.000000  5.000000  5.000000
        endloop
    endfacet
    facet normal  1.000000e+00  0.000000e+00  0.000000e+00
        outer loop
            vertex  5.000000  5.000000  -5.000000
            vertex  5.000000  5.000000  5.000000
            vertex  5.000000  -5.000000  -5.000000
        endloop
    endfacet
    facet normal  0.000000e+00  0.000000e+00 -1.000000e+00
        outer loop
            vertex  5.000000  -5.000000  -5.000000
            vertex  -5.000000  -5.000000  -5.000000
            vertex  5.000000  5.000000  -5.000000
        endloop
    endfacet
    facet normal  0.000000e+00  0.000000e+00 -1.000000e+00
        outer loop
            vertex  -5.000000  5.000000  -5.000000
            vertex  5.000000  5.000000  -5.000000
            vertex  -5.000000  -5.000000  -5.000000
        endloop
    endfacet
    facet normal -1.000000e+00  0.000000e+00  0.000000e+00
        outer loop
            vertex  -5.000000  -5.000000  -5.000000
            vertex  -5.000000  -5.000000  5.000000
            vertex  -5.000000  5.000000  -5.000000
        endloop
    endfacet
    facet normal -1.000000e+00  0.000000e+00  0.000000e+00
        outer loop
            vertex  -5.000000  5.000000  5.000000
            vertex  -5.000000  5.000000  -5.000000
            vertex  -5.000000  -5.000000  5.000000
        endloop
    endfacet
    facet normal  0.000000e+00  1.000000e+00  0.000000e+00
        outer loop
            vertex  -5.000000  5.000000  5.000000
            vertex  5.000000  5.000000  5.000000
            vertex  -5.000000  5.000000  -5.000000
        endloop
    endfacet
    facet normal  0.000000e+00  1.000000e+00  0.000000e+00
        outer loop
            vertex  5.000000  5.000000  -5.000000
            vertex  -5.000000  5.000000  -5.000000
            vertex  5.000000  5.000000  5.000000
        endloop
    endfacet
    facet normal  0.000000e+00 -1.000000e+00  0.000000e+00
        outer loop
            vertex  5.000000  -5.000000  5.000000
            vertex  -5.000000  -5.000000  5.000000
            vertex  5.000000  -5.000000  -5.000000
        endloop
    endfacet
    facet normal  0.000000e+00 -1.000000e+00  0.000000e+00
        outer loop
            vertex  -5.000000  -5.000000  -5.000000
            vertex  5.000000  -5.000000  -5.000000
            vertex  -5.000000  -5.000000  5.000000
        endloop
    endfacet
endsolid
